<svg width="265" height="149" viewBox="0 0 265 149" fill="none" xmlns="http://www.w3.org/2000/svg">
<rect width="265" height="149" rx="16" fill="#ECD8C1"/>
<rect x="21.8348" y="18.4663" width="50" height="48" rx="10" transform="rotate(7.01818 21.8348 18.4663)" fill="#427383"/>
<rect x="18.2314" y="15" width="50" height="48" rx="10" transform="rotate(7.01818 18.2314 15)" fill="white"/>
<rect x="87.7291" y="28.2422" width="50" height="48" rx="10" transform="rotate(-17.9241 87.7291 28.2422)" fill="#427383"/>
<rect x="83" y="26.6187" width="50" height="48" rx="10" transform="rotate(-17.9241 83 26.6187)" fill="white"/>
<rect x="173.174" y="17.0186" width="50" height="48" rx="10" transform="rotate(-3.46782 173.174 17.0186)" fill="#427383"/>
<rect x="169" y="14.2661" width="50" height="48" rx="10" transform="rotate(-3.46782 169 14.2661)" fill="white"/>
<rect x="44.7291" y="92.2422" width="50" height="48" rx="10" transform="rotate(-17.9241 44.7291 92.2422)" fill="#427383"/>
<rect x="40" y="90.6187" width="50" height="48" rx="10" transform="rotate(-17.9241 40 90.6187)" fill="white"/>
<rect x="191.729" y="88.2422" width="50" height="48" rx="10" transform="rotate(-17.9241 191.729 88.2422)" fill="#427383"/>
<rect x="187" y="86.6187" width="50" height="48" rx="10" transform="rotate(-17.9241 187 86.6187)" fill="white"/>
<rect x="132.838" y="81.3896" width="50" height="48" rx="10" transform="rotate(5.80971 132.838 81.3896)" fill="#427383"/>
<rect x="129.162" y="78" width="50" height="48" rx="10" transform="rotate(5.80971 129.162 78)" fill="white"/>
<path d="M33.7708 52.1687L39.6433 33.3817L42.0331 33.6625L42.397 36.7258L36.2133 55.8852L33.6217 55.5808L33.7708 52.1687ZM34.7861 32.8112L35.4413 52.4121L34.5528 55.6902L31.6974 55.3548L30.3013 32.2843L34.7861 32.8112ZM43.1165 53.235L48.2715 34.3953L52.7408 34.9203L46.0674 57.0428L43.1965 56.7055L43.1165 53.235ZM43.4143 33.8247L44.7915 53.5734L44.1121 56.8131L41.5205 56.5087L39.9643 36.4086L41.04 33.5458L43.4143 33.8247Z" fill="#2A334E"/>
<path d="M122.377 37.636L123.51 41.2597C123.989 42.7907 124.22 44.1919 124.203 45.4633C124.193 46.7217 123.966 47.8459 123.523 48.8359C123.086 49.8129 122.447 50.6461 121.604 51.3355C120.77 52.0218 119.772 52.5469 118.609 52.9107C117.446 53.2746 116.322 53.4135 115.236 53.3275C114.16 53.2384 113.155 52.9199 112.219 52.3721C111.291 51.8112 110.459 51.0183 109.723 49.9932C108.985 48.9581 108.376 47.6751 107.897 46.1441L106.763 42.5204C106.272 40.9497 106.027 39.5202 106.028 38.232C106.025 36.9339 106.249 35.7833 106.7 34.7802C107.147 33.7672 107.785 32.9126 108.615 32.2163C109.442 31.5102 110.437 30.9751 111.6 30.6112C112.763 30.2474 113.886 30.1199 114.968 30.229C116.047 30.3281 117.058 30.6664 118.003 31.2441C118.945 31.8117 119.785 32.6296 120.522 33.6975C121.267 34.7524 121.885 36.0653 122.377 37.636ZM119.171 42.6173L118.028 38.9638C117.704 37.9299 117.355 37.0734 116.978 36.3943C116.599 35.7052 116.187 35.1738 115.743 34.7998C115.299 34.4259 114.828 34.1964 114.332 34.1114C113.837 34.0264 113.305 34.0726 112.739 34.2499C112.172 34.4271 111.704 34.6935 111.335 35.0491C110.976 35.4015 110.72 35.8581 110.568 36.4186C110.426 36.9761 110.396 37.6459 110.477 38.4283C110.565 39.1975 110.77 40.0991 111.094 41.1331L112.237 44.7866C112.548 45.7807 112.888 46.6074 113.258 47.2666C113.628 47.9258 114.032 48.4324 114.47 48.7865C114.908 49.1406 115.375 49.3601 115.871 49.4451C116.374 49.517 116.909 49.4643 117.476 49.2871C118.032 49.1129 118.492 48.8546 118.854 48.512C119.223 48.1565 119.482 47.7099 119.63 47.1724C119.778 46.6348 119.817 45.9898 119.745 45.2373C119.673 44.4848 119.482 43.6114 119.171 42.6173Z" fill="#2A334E"/>
<path d="M188.43 28.2773L195.726 28.3793C197.247 28.4006 198.54 28.6791 199.605 29.2149C200.671 29.7507 201.483 30.5329 202.041 31.5617C202.6 32.5904 202.869 33.8547 202.848 35.3546C202.831 36.5836 202.649 37.6333 202.304 38.5035C201.958 39.3634 201.474 40.0806 200.852 40.6553C200.229 41.2196 199.488 41.6676 198.63 41.9994L197.227 42.808L191.306 42.7251L191.344 38.9284L195.453 38.9859C196.078 38.9946 196.595 38.8664 197.005 38.6013C197.426 38.3259 197.738 37.9396 197.943 37.4424C198.159 36.935 198.271 36.3428 198.281 35.6657C198.291 34.9471 198.205 34.3312 198.025 33.8182C197.855 33.295 197.574 32.8952 197.182 32.6188C196.801 32.3322 196.298 32.1845 195.673 32.1758L192.954 32.1378L192.689 51.0891L188.112 51.025L188.43 28.2773ZM198.439 51.1695L194.409 40.9715L199.206 41.0229L203.332 51.0191L203.329 51.2379L198.439 51.1695Z" fill="#2A334E"/>
<path d="M74.3203 116.816L70.4659 117.942L69.4351 114.304L73.2594 113.186C74.3192 112.876 75.0886 112.445 75.5674 111.893C76.0463 111.341 76.2859 110.619 76.2862 109.729C76.2965 108.836 76.1073 107.725 75.7186 106.395L74.7235 102.991C74.4284 101.981 74.1135 101.145 73.779 100.483C73.4415 99.8115 73.055 99.3059 72.6194 98.9665C72.1808 98.6172 71.6709 98.4135 71.0896 98.3555C70.5083 98.2975 69.8328 98.381 69.0629 98.6061L65.0736 99.7721L64.0083 96.1277L67.9977 94.9617C69.2575 94.5935 70.4622 94.4638 71.6118 94.5727C72.7615 94.6817 73.8217 95.0229 74.7924 95.5965C75.7602 96.1601 76.6122 96.9584 77.3482 97.9913C78.0842 99.0242 78.667 100.276 79.0966 101.745L80.0829 105.12C80.5154 106.599 80.6983 107.968 80.6315 109.224C80.5647 110.481 80.2768 111.613 79.7678 112.619C79.2659 113.612 78.5549 114.465 77.6349 115.179C76.7149 115.893 75.61 116.439 74.3203 116.816ZM66.6329 95.3606L73.0155 117.197L68.6212 118.481L62.2386 96.645L66.6329 95.3606Z" fill="#2A334E"/>
<path d="M158.869 114.024L158.417 117.778L149.032 116.648L149.484 112.894L158.869 114.024ZM153.149 94.2292L150.428 116.816L145.883 116.268L148.603 93.6817L153.149 94.2292Z" fill="#2A334E"/>
<path d="M229.394 106.977L230.774 110.498L221.564 114.105L220.185 110.585L229.394 106.977ZM214.591 92.4039L222.888 113.587L218.625 115.257L210.328 94.0737L214.591 92.4039ZM224.602 98.3833L225.941 101.802L217.968 104.925L216.629 101.506L224.602 98.3833ZM222.447 89.3266L223.832 92.8619L214.652 96.4579L213.267 92.9225L222.447 89.3266Z" fill="#2A334E"/>
</svg>
