<svg width="390" height="164" viewBox="0 0 390 164" fill="none" xmlns="http://www.w3.org/2000/svg">
<circle cx="391" cy="159" r="5" fill="#BA7494"/>
<circle cx="389" cy="103" r="5" fill="#BA7494" fill-opacity="0.8"/>
<circle cx="387" cy="47" r="5" fill="#BA7494" fill-opacity="0.4"/>
<circle cx="391" cy="131" r="5" fill="#BA7494"/>
<circle cx="389" cy="75" r="5" fill="#BA7494" fill-opacity="0.6"/>
<circle cx="387" cy="19" r="5" fill="#BA7494" fill-opacity="0.2"/>
<circle cx="-4" cy="5" r="5" fill="#BA7494" fill-opacity="0.2"/>
<circle cx="16" cy="5" r="5" fill="#BA7494" fill-opacity="0.1"/>
<circle cx="36" cy="5" r="5" fill="#BA7494" fill-opacity="0.1"/>
<circle cx="56" cy="5" r="5" fill="#BA7494" fill-opacity="0.1"/>
<circle cx="76" cy="5" r="5" fill="#BA7494" fill-opacity="0.1"/>
<circle cx="96" cy="5" r="5" fill="#BA7494" fill-opacity="0.1"/>
<circle cx="116" cy="5" r="5" fill="#BA7494" fill-opacity="0.1"/>
<circle cx="136" cy="5" r="5" fill="#BA7494" fill-opacity="0.1"/>
<circle cx="156" cy="5" r="5" fill="#BA7494" fill-opacity="0.1"/>
<circle cx="176" cy="5" r="5" fill="#BA7494" fill-opacity="0.1"/>
<circle cx="196" cy="5" r="5" fill="#BA7494" fill-opacity="0.1"/>
<circle cx="216" cy="5" r="5" fill="#BA7494" fill-opacity="0.1"/>
<circle cx="236" cy="5" r="5" fill="#BA7494" fill-opacity="0.1"/>
<circle cx="256" cy="5" r="5" fill="#BA7494" fill-opacity="0.1"/>
<circle cx="276" cy="5" r="5" fill="#BA7494" fill-opacity="0.1"/>
<circle cx="296" cy="5" r="5" fill="#BA7494" fill-opacity="0.1"/>
<circle cx="316" cy="5" r="5" fill="#BA7494" fill-opacity="0.1"/>
<circle cx="336" cy="5" r="5" fill="#BA7494" fill-opacity="0.1"/>
<circle cx="356" cy="5" r="5" fill="#BA7494" fill-opacity="0.1"/>
<circle cx="11" cy="159" r="5" fill="#BA7494"/>
<circle cx="9" cy="103" r="5" fill="#BA7494" fill-opacity="0.8"/>
<circle cx="7" cy="47" r="5" fill="#BA7494" fill-opacity="0.4"/>
<circle cx="11" cy="131" r="5" fill="#BA7494"/>
<circle cx="9" cy="75" r="5" fill="#BA7494" fill-opacity="0.6"/>
<circle cx="7" cy="19" r="5" fill="#BA7494" fill-opacity="0.2"/>
<circle cx="31" cy="159" r="5" fill="#BA7494"/>
<circle cx="29" cy="103" r="5" fill="#BA7494" fill-opacity="0.8"/>
<circle cx="27" cy="47" r="5" fill="#BA7494" fill-opacity="0.4"/>
<circle cx="31" cy="131" r="5" fill="#BA7494"/>
<circle cx="29" cy="75" r="5" fill="#BA7494" fill-opacity="0.6"/>
<circle cx="27" cy="19" r="5" fill="#BA7494" fill-opacity="0.2"/>
<circle cx="51" cy="159" r="5" fill="#BA7494"/>
<circle cx="49" cy="103" r="5" fill="#BA7494" fill-opacity="0.8"/>
<circle cx="47" cy="47" r="5" fill="#BA7494" fill-opacity="0.4"/>
<circle cx="51" cy="131" r="5" fill="#BA7494"/>
<circle cx="49" cy="75" r="5" fill="#BA7494" fill-opacity="0.6"/>
<circle cx="47" cy="19" r="5" fill="#BA7494" fill-opacity="0.2"/>
<circle cx="71" cy="159" r="5" fill="#BA7494"/>
<circle cx="69" cy="103" r="5" fill="#BA7494" fill-opacity="0.8"/>
<circle cx="67" cy="47" r="5" fill="#BA7494" fill-opacity="0.4"/>
<circle cx="71" cy="131" r="5" fill="#BA7494"/>
<circle cx="69" cy="75" r="5" fill="#BA7494" fill-opacity="0.6"/>
<circle cx="67" cy="19" r="5" fill="#BA7494" fill-opacity="0.2"/>
<circle cx="91" cy="159" r="5" fill="#BA7494"/>
<circle cx="89" cy="103" r="5" fill="#BA7494" fill-opacity="0.8"/>
<circle cx="87" cy="47" r="5" fill="#BA7494" fill-opacity="0.4"/>
<circle cx="91" cy="131" r="5" fill="#BA7494"/>
<circle cx="89" cy="75" r="5" fill="#BA7494" fill-opacity="0.6"/>
<circle cx="87" cy="19" r="5" fill="#BA7494" fill-opacity="0.2"/>
<circle cx="111" cy="159" r="5" fill="#BA7494"/>
<circle cx="109" cy="103" r="5" fill="#BA7494" fill-opacity="0.8"/>
<circle cx="107" cy="47" r="5" fill="#BA7494" fill-opacity="0.4"/>
<circle cx="111" cy="131" r="5" fill="#BA7494"/>
<circle cx="109" cy="75" r="5" fill="#BA7494" fill-opacity="0.6"/>
<circle cx="107" cy="19" r="5" fill="#BA7494" fill-opacity="0.2"/>
<circle cx="131" cy="159" r="5" fill="#BA7494"/>
<circle cx="129" cy="103" r="5" fill="#BA7494" fill-opacity="0.8"/>
<circle cx="127" cy="47" r="5" fill="#BA7494" fill-opacity="0.4"/>
<circle cx="131" cy="131" r="5" fill="#BA7494"/>
<circle cx="129" cy="75" r="5" fill="#BA7494" fill-opacity="0.6"/>
<circle cx="127" cy="19" r="5" fill="#BA7494" fill-opacity="0.2"/>
<circle cx="151" cy="159" r="5" fill="#BA7494"/>
<circle cx="149" cy="103" r="5" fill="#BA7494" fill-opacity="0.8"/>
<circle cx="147" cy="47" r="5" fill="#BA7494" fill-opacity="0.4"/>
<circle cx="151" cy="131" r="5" fill="#BA7494"/>
<circle cx="149" cy="75" r="5" fill="#BA7494" fill-opacity="0.6"/>
<circle cx="147" cy="19" r="5" fill="#BA7494" fill-opacity="0.2"/>
<circle cx="171" cy="159" r="5" fill="#BA7494"/>
<circle cx="169" cy="103" r="5" fill="#BA7494" fill-opacity="0.8"/>
<circle cx="167" cy="47" r="5" fill="#BA7494" fill-opacity="0.4"/>
<circle cx="171" cy="131" r="5" fill="#BA7494"/>
<circle cx="169" cy="75" r="5" fill="#BA7494" fill-opacity="0.6"/>
<circle cx="167" cy="19" r="5" fill="#BA7494" fill-opacity="0.2"/>
<circle cx="191" cy="159" r="5" fill="#BA7494"/>
<circle cx="189" cy="103" r="5" fill="#BA7494" fill-opacity="0.8"/>
<circle cx="187" cy="47" r="5" fill="#BA7494" fill-opacity="0.4"/>
<circle cx="191" cy="131" r="5" fill="#BA7494"/>
<circle cx="189" cy="75" r="5" fill="#BA7494" fill-opacity="0.6"/>
<circle cx="187" cy="19" r="5" fill="#BA7494" fill-opacity="0.2"/>
<circle cx="211" cy="159" r="5" fill="#BA7494"/>
<circle cx="209" cy="103" r="5" fill="#BA7494" fill-opacity="0.8"/>
<circle cx="207" cy="47" r="5" fill="#BA7494" fill-opacity="0.4"/>
<circle cx="211" cy="131" r="5" fill="#BA7494"/>
<circle cx="209" cy="75" r="5" fill="#BA7494" fill-opacity="0.6"/>
<circle cx="207" cy="19" r="5" fill="#BA7494" fill-opacity="0.2"/>
<circle cx="231" cy="159" r="5" fill="#BA7494"/>
<circle cx="229" cy="103" r="5" fill="#BA7494" fill-opacity="0.8"/>
<circle cx="227" cy="47" r="5" fill="#BA7494" fill-opacity="0.4"/>
<circle cx="231" cy="131" r="5" fill="#BA7494"/>
<circle cx="229" cy="75" r="5" fill="#BA7494" fill-opacity="0.6"/>
<circle cx="227" cy="19" r="5" fill="#BA7494" fill-opacity="0.2"/>
<circle cx="251" cy="159" r="5" fill="#BA7494"/>
<circle cx="249" cy="103" r="5" fill="#BA7494" fill-opacity="0.8"/>
<circle cx="247" cy="47" r="5" fill="#BA7494" fill-opacity="0.4"/>
<circle cx="251" cy="131" r="5" fill="#BA7494"/>
<circle cx="249" cy="75" r="5" fill="#BA7494" fill-opacity="0.6"/>
<circle cx="247" cy="19" r="5" fill="#BA7494" fill-opacity="0.2"/>
<circle cx="271" cy="159" r="5" fill="#BA7494"/>
<circle cx="269" cy="103" r="5" fill="#BA7494" fill-opacity="0.8"/>
<circle cx="267" cy="47" r="5" fill="#BA7494" fill-opacity="0.4"/>
<circle cx="271" cy="131" r="5" fill="#BA7494"/>
<circle cx="269" cy="75" r="5" fill="#BA7494" fill-opacity="0.6"/>
<circle cx="267" cy="19" r="5" fill="#BA7494" fill-opacity="0.2"/>
<circle cx="291" cy="159" r="5" fill="#BA7494"/>
<circle cx="289" cy="103" r="5" fill="#BA7494" fill-opacity="0.8"/>
<circle cx="287" cy="47" r="5" fill="#BA7494" fill-opacity="0.4"/>
<circle cx="291" cy="131" r="5" fill="#BA7494"/>
<circle cx="289" cy="75" r="5" fill="#BA7494" fill-opacity="0.6"/>
<circle cx="287" cy="19" r="5" fill="#BA7494" fill-opacity="0.2"/>
<circle cx="311" cy="159" r="5" fill="#BA7494"/>
<circle cx="309" cy="103" r="5" fill="#BA7494" fill-opacity="0.8"/>
<circle cx="307" cy="47" r="5" fill="#BA7494" fill-opacity="0.4"/>
<circle cx="311" cy="131" r="5" fill="#BA7494"/>
<circle cx="309" cy="75" r="5" fill="#BA7494" fill-opacity="0.6"/>
<circle cx="307" cy="19" r="5" fill="#BA7494" fill-opacity="0.2"/>
<circle cx="331" cy="159" r="5" fill="#BA7494"/>
<circle cx="329" cy="103" r="5" fill="#BA7494" fill-opacity="0.8"/>
<circle cx="327" cy="47" r="5" fill="#BA7494" fill-opacity="0.4"/>
<circle cx="331" cy="131" r="5" fill="#BA7494"/>
<circle cx="329" cy="75" r="5" fill="#BA7494" fill-opacity="0.6"/>
<circle cx="327" cy="19" r="5" fill="#BA7494" fill-opacity="0.2"/>
<circle cx="351" cy="159" r="5" fill="#BA7494"/>
<circle cx="349" cy="103" r="5" fill="#BA7494" fill-opacity="0.8"/>
<circle cx="347" cy="47" r="5" fill="#BA7494" fill-opacity="0.4"/>
<circle cx="351" cy="131" r="5" fill="#BA7494"/>
<circle cx="349" cy="75" r="5" fill="#BA7494" fill-opacity="0.6"/>
<circle cx="347" cy="19" r="5" fill="#BA7494" fill-opacity="0.2"/>
<circle cx="371" cy="159" r="5" fill="#BA7494"/>
<circle cx="369" cy="103" r="5" fill="#BA7494" fill-opacity="0.8"/>
<circle cx="367" cy="47" r="5" fill="#BA7494" fill-opacity="0.4"/>
<circle cx="371" cy="131" r="5" fill="#BA7494"/>
<circle cx="369" cy="75" r="5" fill="#BA7494" fill-opacity="0.6"/>
<circle cx="367" cy="19" r="5" fill="#BA7494" fill-opacity="0.2"/>
<circle cy="145" r="5" fill="#BA7494"/>
<circle cx="-2" cy="89" r="5" fill="#BA7494" fill-opacity="0.6"/>
<circle cx="-4" cy="33" r="5" fill="#BA7494" fill-opacity="0.4"/>
<circle cy="117" r="5" fill="#BA7494" fill-opacity="0.8"/>
<circle cx="-2" cy="61" r="5" fill="#BA7494" fill-opacity="0.6"/>
<circle cx="20" cy="145" r="5" fill="#BA7494"/>
<circle cx="18" cy="89" r="5" fill="#BA7494" fill-opacity="0.6"/>
<circle cx="16" cy="33" r="5" fill="#BA7494" fill-opacity="0.4"/>
<circle cx="20" cy="117" r="5" fill="#BA7494" fill-opacity="0.8"/>
<circle cx="18" cy="61" r="5" fill="#BA7494" fill-opacity="0.6"/>
<circle cx="40" cy="145" r="5" fill="#BA7494"/>
<circle cx="38" cy="89" r="5" fill="#BA7494" fill-opacity="0.6"/>
<circle cx="36" cy="33" r="5" fill="#BA7494" fill-opacity="0.4"/>
<circle cx="40" cy="117" r="5" fill="#BA7494" fill-opacity="0.8"/>
<circle cx="38" cy="61" r="5" fill="#BA7494" fill-opacity="0.6"/>
<circle cx="60" cy="145" r="5" fill="#BA7494"/>
<circle cx="58" cy="89" r="5" fill="#BA7494" fill-opacity="0.6"/>
<circle cx="56" cy="33" r="5" fill="#BA7494" fill-opacity="0.4"/>
<circle cx="60" cy="117" r="5" fill="#BA7494" fill-opacity="0.8"/>
<circle cx="58" cy="61" r="5" fill="#BA7494" fill-opacity="0.6"/>
<circle cx="80" cy="145" r="5" fill="#BA7494"/>
<circle cx="78" cy="89" r="5" fill="#BA7494" fill-opacity="0.6"/>
<circle cx="76" cy="33" r="5" fill="#BA7494" fill-opacity="0.4"/>
<circle cx="80" cy="117" r="5" fill="#BA7494" fill-opacity="0.8"/>
<circle cx="78" cy="61" r="5" fill="#BA7494" fill-opacity="0.6"/>
<circle cx="100" cy="145" r="5" fill="#BA7494"/>
<circle cx="98" cy="89" r="5" fill="#BA7494" fill-opacity="0.6"/>
<circle cx="96" cy="33" r="5" fill="#BA7494" fill-opacity="0.4"/>
<circle cx="100" cy="117" r="5" fill="#BA7494" fill-opacity="0.8"/>
<circle cx="98" cy="61" r="5" fill="#BA7494" fill-opacity="0.6"/>
<circle cx="120" cy="145" r="5" fill="#BA7494"/>
<circle cx="118" cy="89" r="5" fill="#BA7494" fill-opacity="0.6"/>
<circle cx="116" cy="33" r="5" fill="#BA7494" fill-opacity="0.4"/>
<circle cx="120" cy="117" r="5" fill="#BA7494" fill-opacity="0.8"/>
<circle cx="118" cy="61" r="5" fill="#BA7494" fill-opacity="0.6"/>
<circle cx="140" cy="145" r="5" fill="#BA7494"/>
<circle cx="138" cy="89" r="5" fill="#BA7494" fill-opacity="0.6"/>
<circle cx="136" cy="33" r="5" fill="#BA7494" fill-opacity="0.4"/>
<circle cx="140" cy="117" r="5" fill="#BA7494" fill-opacity="0.8"/>
<circle cx="138" cy="61" r="5" fill="#BA7494" fill-opacity="0.6"/>
<circle cx="160" cy="145" r="5" fill="#BA7494"/>
<circle cx="158" cy="89" r="5" fill="#BA7494" fill-opacity="0.6"/>
<circle cx="156" cy="33" r="5" fill="#BA7494" fill-opacity="0.4"/>
<circle cx="160" cy="117" r="5" fill="#BA7494" fill-opacity="0.8"/>
<circle cx="158" cy="61" r="5" fill="#BA7494" fill-opacity="0.6"/>
<circle cx="180" cy="145" r="5" fill="#BA7494"/>
<circle cx="178" cy="89" r="5" fill="#BA7494" fill-opacity="0.6"/>
<circle cx="176" cy="33" r="5" fill="#BA7494" fill-opacity="0.4"/>
<circle cx="180" cy="117" r="5" fill="#BA7494" fill-opacity="0.8"/>
<circle cx="178" cy="61" r="5" fill="#BA7494" fill-opacity="0.6"/>
<circle cx="200" cy="145" r="5" fill="#BA7494"/>
<circle cx="198" cy="89" r="5" fill="#BA7494" fill-opacity="0.6"/>
<circle cx="196" cy="33" r="5" fill="#BA7494" fill-opacity="0.4"/>
<circle cx="200" cy="117" r="5" fill="#BA7494" fill-opacity="0.8"/>
<circle cx="198" cy="61" r="5" fill="#BA7494" fill-opacity="0.6"/>
<circle cx="220" cy="145" r="5" fill="#BA7494"/>
<circle cx="218" cy="89" r="5" fill="#BA7494" fill-opacity="0.6"/>
<circle cx="216" cy="33" r="5" fill="#BA7494" fill-opacity="0.4"/>
<circle cx="220" cy="117" r="5" fill="#BA7494" fill-opacity="0.8"/>
<circle cx="218" cy="61" r="5" fill="#BA7494" fill-opacity="0.6"/>
<circle cx="240" cy="145" r="5" fill="#BA7494"/>
<circle cx="238" cy="89" r="5" fill="#BA7494" fill-opacity="0.6"/>
<circle cx="236" cy="33" r="5" fill="#BA7494" fill-opacity="0.4"/>
<circle cx="240" cy="117" r="5" fill="#BA7494" fill-opacity="0.8"/>
<circle cx="238" cy="61" r="5" fill="#BA7494" fill-opacity="0.6"/>
<circle cx="260" cy="145" r="5" fill="#BA7494"/>
<circle cx="258" cy="89" r="5" fill="#BA7494" fill-opacity="0.6"/>
<circle cx="256" cy="33" r="5" fill="#BA7494" fill-opacity="0.4"/>
<circle cx="260" cy="117" r="5" fill="#BA7494" fill-opacity="0.8"/>
<circle cx="258" cy="61" r="5" fill="#BA7494" fill-opacity="0.6"/>
<circle cx="280" cy="145" r="5" fill="#BA7494"/>
<circle cx="278" cy="89" r="5" fill="#BA7494" fill-opacity="0.6"/>
<circle cx="276" cy="33" r="5" fill="#BA7494" fill-opacity="0.4"/>
<circle cx="280" cy="117" r="5" fill="#BA7494" fill-opacity="0.8"/>
<circle cx="278" cy="61" r="5" fill="#BA7494" fill-opacity="0.6"/>
<circle cx="300" cy="145" r="5" fill="#BA7494"/>
<circle cx="298" cy="89" r="5" fill="#BA7494" fill-opacity="0.6"/>
<circle cx="296" cy="33" r="5" fill="#BA7494" fill-opacity="0.4"/>
<circle cx="300" cy="117" r="5" fill="#BA7494" fill-opacity="0.8"/>
<circle cx="298" cy="61" r="5" fill="#BA7494" fill-opacity="0.6"/>
<circle cx="320" cy="145" r="5" fill="#BA7494"/>
<circle cx="318" cy="89" r="5" fill="#BA7494" fill-opacity="0.6"/>
<circle cx="316" cy="33" r="5" fill="#BA7494" fill-opacity="0.4"/>
<circle cx="320" cy="117" r="5" fill="#BA7494" fill-opacity="0.8"/>
<circle cx="318" cy="61" r="5" fill="#BA7494" fill-opacity="0.6"/>
<circle cx="340" cy="145" r="5" fill="#BA7494"/>
<circle cx="338" cy="89" r="5" fill="#BA7494" fill-opacity="0.6"/>
<circle cx="336" cy="33" r="5" fill="#BA7494" fill-opacity="0.4"/>
<circle cx="340" cy="117" r="5" fill="#BA7494" fill-opacity="0.8"/>
<circle cx="338" cy="61" r="5" fill="#BA7494" fill-opacity="0.6"/>
<circle cx="360" cy="145" r="5" fill="#BA7494"/>
<circle cx="358" cy="89" r="5" fill="#BA7494" fill-opacity="0.6"/>
<circle cx="356" cy="33" r="5" fill="#BA7494" fill-opacity="0.4"/>
<circle cx="360" cy="117" r="5" fill="#BA7494" fill-opacity="0.8"/>
<circle cx="358" cy="61" r="5" fill="#BA7494" fill-opacity="0.6"/>
<circle cx="380" cy="145" r="5" fill="#BA7494"/>
<circle cx="378" cy="89" r="5" fill="#BA7494" fill-opacity="0.6"/>
<circle cx="376" cy="33" r="5" fill="#BA7494" fill-opacity="0.4"/>
<circle cx="380" cy="117" r="5" fill="#BA7494" fill-opacity="0.8"/>
<circle cx="378" cy="61" r="5" fill="#BA7494" fill-opacity="0.6"/>
<circle cx="376" cy="5" r="5" fill="#BA7494" fill-opacity="0.1"/>
<circle cx="16" cy="5" r="5" fill="#BA7494" fill-opacity="0.1"/>
<circle cx="36" cy="5" r="5" fill="#BA7494" fill-opacity="0.1"/>
<circle cx="56" cy="5" r="5" fill="#BA7494" fill-opacity="0.1"/>
<circle cx="76" cy="5" r="5" fill="#BA7494" fill-opacity="0.1"/>
<circle cx="96" cy="5" r="5" fill="#BA7494" fill-opacity="0.1"/>
<circle cx="116" cy="5" r="5" fill="#BA7494" fill-opacity="0.1"/>
<circle cx="136" cy="5" r="5" fill="#BA7494" fill-opacity="0.1"/>
<circle cx="156" cy="5" r="5" fill="#BA7494" fill-opacity="0.1"/>
<circle cx="176" cy="5" r="5" fill="#BA7494" fill-opacity="0.1"/>
<circle cx="196" cy="5" r="5" fill="#BA7494" fill-opacity="0.1"/>
<circle cx="216" cy="5" r="5" fill="#BA7494" fill-opacity="0.1"/>
<circle cx="236" cy="5" r="5" fill="#BA7494" fill-opacity="0.1"/>
<circle cx="256" cy="5" r="5" fill="#BA7494" fill-opacity="0.1"/>
<circle cx="276" cy="5" r="5" fill="#BA7494" fill-opacity="0.1"/>
<circle cx="296" cy="5" r="5" fill="#BA7494" fill-opacity="0.1"/>
<circle cx="316" cy="5" r="5" fill="#BA7494" fill-opacity="0.1"/>
<circle cx="336" cy="5" r="5" fill="#BA7494" fill-opacity="0.1"/>
<circle cx="356" cy="5" r="5" fill="#BA7494" fill-opacity="0.1"/>
<circle cx="376" cy="5" r="5" fill="#BA7494" fill-opacity="0.1"/>
</svg>
