<svg width="390" height="164" viewBox="0 0 390 164" fill="none" xmlns="http://www.w3.org/2000/svg">
<circle cx="393" cy="159" r="5" fill="#ECD8C1"/>
<circle cx="391" cy="103" r="5" fill="#ECD8C1" fill-opacity="0.85"/>
<circle cx="389" cy="47" r="5" fill="#ECD8C1" fill-opacity="0.66"/>
<circle cx="393" cy="131" r="5" fill="#ECD8C1"/>
<circle cx="391" cy="75" r="5" fill="#ECD8C1" fill-opacity="0.82"/>
<circle cx="389" cy="19" r="5" fill="#ECD8C1" fill-opacity="0.37"/>
<circle cx="-2" cy="5" r="5" fill="#ECD8C1" fill-opacity="0.37"/>
<circle cx="18" cy="5" r="5" fill="#ECD8C1" fill-opacity="0.16"/>
<circle cx="38" cy="5" r="5" fill="#ECD8C1" fill-opacity="0.16"/>
<circle cx="58" cy="5" r="5" fill="#ECD8C1" fill-opacity="0.16"/>
<circle cx="78" cy="5" r="5" fill="#ECD8C1" fill-opacity="0.16"/>
<circle cx="98" cy="5" r="5" fill="#ECD8C1" fill-opacity="0.16"/>
<circle cx="118" cy="5" r="5" fill="#ECD8C1" fill-opacity="0.16"/>
<circle cx="138" cy="5" r="5" fill="#ECD8C1" fill-opacity="0.16"/>
<circle cx="158" cy="5" r="5" fill="#ECD8C1" fill-opacity="0.16"/>
<circle cx="178" cy="5" r="5" fill="#ECD8C1" fill-opacity="0.16"/>
<circle cx="198" cy="5" r="5" fill="#ECD8C1" fill-opacity="0.16"/>
<circle cx="218" cy="5" r="5" fill="#ECD8C1" fill-opacity="0.16"/>
<circle cx="238" cy="5" r="5" fill="#ECD8C1" fill-opacity="0.16"/>
<circle cx="258" cy="5" r="5" fill="#ECD8C1" fill-opacity="0.16"/>
<circle cx="278" cy="5" r="5" fill="#ECD8C1" fill-opacity="0.16"/>
<circle cx="298" cy="5" r="5" fill="#ECD8C1" fill-opacity="0.16"/>
<circle cx="318" cy="5" r="5" fill="#ECD8C1" fill-opacity="0.16"/>
<circle cx="338" cy="5" r="5" fill="#ECD8C1" fill-opacity="0.16"/>
<circle cx="358" cy="5" r="5" fill="#ECD8C1" fill-opacity="0.16"/>
<circle cx="13" cy="159" r="5" fill="#ECD8C1"/>
<circle cx="11" cy="103" r="5" fill="#ECD8C1" fill-opacity="0.85"/>
<circle cx="9" cy="47" r="5" fill="#ECD8C1" fill-opacity="0.66"/>
<circle cx="13" cy="131" r="5" fill="#ECD8C1"/>
<circle cx="11" cy="75" r="5" fill="#ECD8C1" fill-opacity="0.82"/>
<circle cx="9" cy="19" r="5" fill="#ECD8C1" fill-opacity="0.37"/>
<circle cx="33" cy="159" r="5" fill="#ECD8C1"/>
<circle cx="31" cy="103" r="5" fill="#ECD8C1" fill-opacity="0.85"/>
<circle cx="29" cy="47" r="5" fill="#ECD8C1" fill-opacity="0.66"/>
<circle cx="33" cy="131" r="5" fill="#ECD8C1"/>
<circle cx="31" cy="75" r="5" fill="#ECD8C1" fill-opacity="0.82"/>
<circle cx="29" cy="19" r="5" fill="#ECD8C1" fill-opacity="0.37"/>
<circle cx="53" cy="159" r="5" fill="#ECD8C1"/>
<circle cx="51" cy="103" r="5" fill="#ECD8C1" fill-opacity="0.85"/>
<circle cx="49" cy="47" r="5" fill="#ECD8C1" fill-opacity="0.66"/>
<circle cx="53" cy="131" r="5" fill="#ECD8C1"/>
<circle cx="51" cy="75" r="5" fill="#ECD8C1" fill-opacity="0.82"/>
<circle cx="49" cy="19" r="5" fill="#ECD8C1" fill-opacity="0.37"/>
<circle cx="73" cy="159" r="5" fill="#ECD8C1"/>
<circle cx="71" cy="103" r="5" fill="#ECD8C1" fill-opacity="0.85"/>
<circle cx="69" cy="47" r="5" fill="#ECD8C1" fill-opacity="0.66"/>
<circle cx="73" cy="131" r="5" fill="#ECD8C1"/>
<circle cx="71" cy="75" r="5" fill="#ECD8C1" fill-opacity="0.82"/>
<circle cx="69" cy="19" r="5" fill="#ECD8C1" fill-opacity="0.37"/>
<circle cx="93" cy="159" r="5" fill="#ECD8C1"/>
<circle cx="91" cy="103" r="5" fill="#ECD8C1" fill-opacity="0.85"/>
<circle cx="89" cy="47" r="5" fill="#ECD8C1" fill-opacity="0.66"/>
<circle cx="93" cy="131" r="5" fill="#ECD8C1"/>
<circle cx="91" cy="75" r="5" fill="#ECD8C1" fill-opacity="0.82"/>
<circle cx="89" cy="19" r="5" fill="#ECD8C1" fill-opacity="0.37"/>
<circle cx="113" cy="159" r="5" fill="#ECD8C1"/>
<circle cx="111" cy="103" r="5" fill="#ECD8C1" fill-opacity="0.85"/>
<circle cx="109" cy="47" r="5" fill="#ECD8C1" fill-opacity="0.66"/>
<circle cx="113" cy="131" r="5" fill="#ECD8C1"/>
<circle cx="111" cy="75" r="5" fill="#ECD8C1" fill-opacity="0.82"/>
<circle cx="109" cy="19" r="5" fill="#ECD8C1" fill-opacity="0.37"/>
<circle cx="133" cy="159" r="5" fill="#ECD8C1"/>
<circle cx="131" cy="103" r="5" fill="#ECD8C1" fill-opacity="0.85"/>
<circle cx="129" cy="47" r="5" fill="#ECD8C1" fill-opacity="0.66"/>
<circle cx="133" cy="131" r="5" fill="#ECD8C1"/>
<circle cx="131" cy="75" r="5" fill="#ECD8C1" fill-opacity="0.82"/>
<circle cx="129" cy="19" r="5" fill="#ECD8C1" fill-opacity="0.37"/>
<circle cx="153" cy="159" r="5" fill="#ECD8C1"/>
<circle cx="151" cy="103" r="5" fill="#ECD8C1" fill-opacity="0.85"/>
<circle cx="149" cy="47" r="5" fill="#ECD8C1" fill-opacity="0.66"/>
<circle cx="153" cy="131" r="5" fill="#ECD8C1"/>
<circle cx="151" cy="75" r="5" fill="#ECD8C1" fill-opacity="0.82"/>
<circle cx="149" cy="19" r="5" fill="#ECD8C1" fill-opacity="0.37"/>
<circle cx="173" cy="159" r="5" fill="#ECD8C1"/>
<circle cx="171" cy="103" r="5" fill="#ECD8C1" fill-opacity="0.85"/>
<circle cx="169" cy="47" r="5" fill="#ECD8C1" fill-opacity="0.66"/>
<circle cx="173" cy="131" r="5" fill="#ECD8C1"/>
<circle cx="171" cy="75" r="5" fill="#ECD8C1" fill-opacity="0.82"/>
<circle cx="169" cy="19" r="5" fill="#ECD8C1" fill-opacity="0.37"/>
<circle cx="193" cy="159" r="5" fill="#ECD8C1"/>
<circle cx="191" cy="103" r="5" fill="#ECD8C1" fill-opacity="0.85"/>
<circle cx="189" cy="47" r="5" fill="#ECD8C1" fill-opacity="0.66"/>
<circle cx="193" cy="131" r="5" fill="#ECD8C1"/>
<circle cx="191" cy="75" r="5" fill="#ECD8C1" fill-opacity="0.82"/>
<circle cx="189" cy="19" r="5" fill="#ECD8C1" fill-opacity="0.37"/>
<circle cx="213" cy="159" r="5" fill="#ECD8C1"/>
<circle cx="211" cy="103" r="5" fill="#ECD8C1" fill-opacity="0.85"/>
<circle cx="209" cy="47" r="5" fill="#ECD8C1" fill-opacity="0.66"/>
<circle cx="213" cy="131" r="5" fill="#ECD8C1"/>
<circle cx="211" cy="75" r="5" fill="#ECD8C1" fill-opacity="0.82"/>
<circle cx="209" cy="19" r="5" fill="#ECD8C1" fill-opacity="0.37"/>
<circle cx="233" cy="159" r="5" fill="#ECD8C1"/>
<circle cx="231" cy="103" r="5" fill="#ECD8C1" fill-opacity="0.85"/>
<circle cx="229" cy="47" r="5" fill="#ECD8C1" fill-opacity="0.66"/>
<circle cx="233" cy="131" r="5" fill="#ECD8C1"/>
<circle cx="231" cy="75" r="5" fill="#ECD8C1" fill-opacity="0.82"/>
<circle cx="229" cy="19" r="5" fill="#ECD8C1" fill-opacity="0.37"/>
<circle cx="253" cy="159" r="5" fill="#ECD8C1"/>
<circle cx="251" cy="103" r="5" fill="#ECD8C1" fill-opacity="0.85"/>
<circle cx="249" cy="47" r="5" fill="#ECD8C1" fill-opacity="0.66"/>
<circle cx="253" cy="131" r="5" fill="#ECD8C1"/>
<circle cx="251" cy="75" r="5" fill="#ECD8C1" fill-opacity="0.82"/>
<circle cx="249" cy="19" r="5" fill="#ECD8C1" fill-opacity="0.37"/>
<circle cx="273" cy="159" r="5" fill="#ECD8C1"/>
<circle cx="271" cy="103" r="5" fill="#ECD8C1" fill-opacity="0.85"/>
<circle cx="269" cy="47" r="5" fill="#ECD8C1" fill-opacity="0.66"/>
<circle cx="273" cy="131" r="5" fill="#ECD8C1"/>
<circle cx="271" cy="75" r="5" fill="#ECD8C1" fill-opacity="0.82"/>
<circle cx="269" cy="19" r="5" fill="#ECD8C1" fill-opacity="0.37"/>
<circle cx="293" cy="159" r="5" fill="#ECD8C1"/>
<circle cx="291" cy="103" r="5" fill="#ECD8C1" fill-opacity="0.85"/>
<circle cx="289" cy="47" r="5" fill="#ECD8C1" fill-opacity="0.66"/>
<circle cx="293" cy="131" r="5" fill="#ECD8C1"/>
<circle cx="291" cy="75" r="5" fill="#ECD8C1" fill-opacity="0.82"/>
<circle cx="289" cy="19" r="5" fill="#ECD8C1" fill-opacity="0.37"/>
<circle cx="313" cy="159" r="5" fill="#ECD8C1"/>
<circle cx="311" cy="103" r="5" fill="#ECD8C1" fill-opacity="0.85"/>
<circle cx="309" cy="47" r="5" fill="#ECD8C1" fill-opacity="0.66"/>
<circle cx="313" cy="131" r="5" fill="#ECD8C1"/>
<circle cx="311" cy="75" r="5" fill="#ECD8C1" fill-opacity="0.82"/>
<circle cx="309" cy="19" r="5" fill="#ECD8C1" fill-opacity="0.37"/>
<circle cx="333" cy="159" r="5" fill="#ECD8C1"/>
<circle cx="331" cy="103" r="5" fill="#ECD8C1" fill-opacity="0.85"/>
<circle cx="329" cy="47" r="5" fill="#ECD8C1" fill-opacity="0.66"/>
<circle cx="333" cy="131" r="5" fill="#ECD8C1"/>
<circle cx="331" cy="75" r="5" fill="#ECD8C1" fill-opacity="0.82"/>
<circle cx="329" cy="19" r="5" fill="#ECD8C1" fill-opacity="0.37"/>
<circle cx="353" cy="159" r="5" fill="#ECD8C1"/>
<circle cx="351" cy="103" r="5" fill="#ECD8C1" fill-opacity="0.85"/>
<circle cx="349" cy="47" r="5" fill="#ECD8C1" fill-opacity="0.66"/>
<circle cx="353" cy="131" r="5" fill="#ECD8C1"/>
<circle cx="351" cy="75" r="5" fill="#ECD8C1" fill-opacity="0.82"/>
<circle cx="349" cy="19" r="5" fill="#ECD8C1" fill-opacity="0.37"/>
<circle cx="373" cy="159" r="5" fill="#ECD8C1"/>
<circle cx="371" cy="103" r="5" fill="#ECD8C1" fill-opacity="0.85"/>
<circle cx="369" cy="47" r="5" fill="#ECD8C1" fill-opacity="0.66"/>
<circle cx="373" cy="131" r="5" fill="#ECD8C1"/>
<circle cx="371" cy="75" r="5" fill="#ECD8C1" fill-opacity="0.82"/>
<circle cx="369" cy="19" r="5" fill="#ECD8C1" fill-opacity="0.37"/>
<circle cx="2" cy="145" r="5" fill="#ECD8C1"/>
<circle cy="89" r="5" fill="#ECD8C1" fill-opacity="0.82"/>
<circle cx="-2" cy="33" r="5" fill="#ECD8C1" fill-opacity="0.66"/>
<circle cx="2" cy="117" r="5" fill="#ECD8C1" fill-opacity="0.85"/>
<circle cy="61" r="5" fill="#ECD8C1" fill-opacity="0.82"/>
<circle cx="22" cy="145" r="5" fill="#ECD8C1"/>
<circle cx="20" cy="89" r="5" fill="#ECD8C1" fill-opacity="0.82"/>
<circle cx="18" cy="33" r="5" fill="#ECD8C1" fill-opacity="0.66"/>
<circle cx="22" cy="117" r="5" fill="#ECD8C1" fill-opacity="0.85"/>
<circle cx="20" cy="61" r="5" fill="#ECD8C1" fill-opacity="0.82"/>
<circle cx="42" cy="145" r="5" fill="#ECD8C1"/>
<circle cx="40" cy="89" r="5" fill="#ECD8C1" fill-opacity="0.82"/>
<circle cx="38" cy="33" r="5" fill="#ECD8C1" fill-opacity="0.66"/>
<circle cx="42" cy="117" r="5" fill="#ECD8C1" fill-opacity="0.85"/>
<circle cx="40" cy="61" r="5" fill="#ECD8C1" fill-opacity="0.82"/>
<circle cx="62" cy="145" r="5" fill="#ECD8C1"/>
<circle cx="60" cy="89" r="5" fill="#ECD8C1" fill-opacity="0.82"/>
<circle cx="58" cy="33" r="5" fill="#ECD8C1" fill-opacity="0.66"/>
<circle cx="62" cy="117" r="5" fill="#ECD8C1" fill-opacity="0.85"/>
<circle cx="60" cy="61" r="5" fill="#ECD8C1" fill-opacity="0.82"/>
<circle cx="82" cy="145" r="5" fill="#ECD8C1"/>
<circle cx="80" cy="89" r="5" fill="#ECD8C1" fill-opacity="0.82"/>
<circle cx="78" cy="33" r="5" fill="#ECD8C1" fill-opacity="0.66"/>
<circle cx="82" cy="117" r="5" fill="#ECD8C1" fill-opacity="0.85"/>
<circle cx="80" cy="61" r="5" fill="#ECD8C1" fill-opacity="0.82"/>
<circle cx="102" cy="145" r="5" fill="#ECD8C1"/>
<circle cx="100" cy="89" r="5" fill="#ECD8C1" fill-opacity="0.82"/>
<circle cx="98" cy="33" r="5" fill="#ECD8C1" fill-opacity="0.66"/>
<circle cx="102" cy="117" r="5" fill="#ECD8C1" fill-opacity="0.85"/>
<circle cx="100" cy="61" r="5" fill="#ECD8C1" fill-opacity="0.82"/>
<circle cx="122" cy="145" r="5" fill="#ECD8C1"/>
<circle cx="120" cy="89" r="5" fill="#ECD8C1" fill-opacity="0.82"/>
<circle cx="118" cy="33" r="5" fill="#ECD8C1" fill-opacity="0.66"/>
<circle cx="122" cy="117" r="5" fill="#ECD8C1" fill-opacity="0.85"/>
<circle cx="120" cy="61" r="5" fill="#ECD8C1" fill-opacity="0.82"/>
<circle cx="142" cy="145" r="5" fill="#ECD8C1"/>
<circle cx="140" cy="89" r="5" fill="#ECD8C1" fill-opacity="0.82"/>
<circle cx="138" cy="33" r="5" fill="#ECD8C1" fill-opacity="0.66"/>
<circle cx="142" cy="117" r="5" fill="#ECD8C1" fill-opacity="0.85"/>
<circle cx="140" cy="61" r="5" fill="#ECD8C1" fill-opacity="0.82"/>
<circle cx="162" cy="145" r="5" fill="#ECD8C1"/>
<circle cx="160" cy="89" r="5" fill="#ECD8C1" fill-opacity="0.82"/>
<circle cx="158" cy="33" r="5" fill="#ECD8C1" fill-opacity="0.66"/>
<circle cx="162" cy="117" r="5" fill="#ECD8C1" fill-opacity="0.85"/>
<circle cx="160" cy="61" r="5" fill="#ECD8C1" fill-opacity="0.82"/>
<circle cx="182" cy="145" r="5" fill="#ECD8C1"/>
<circle cx="180" cy="89" r="5" fill="#ECD8C1" fill-opacity="0.82"/>
<circle cx="178" cy="33" r="5" fill="#ECD8C1" fill-opacity="0.66"/>
<circle cx="182" cy="117" r="5" fill="#ECD8C1" fill-opacity="0.85"/>
<circle cx="180" cy="61" r="5" fill="#ECD8C1" fill-opacity="0.82"/>
<circle cx="202" cy="145" r="5" fill="#ECD8C1"/>
<circle cx="200" cy="89" r="5" fill="#ECD8C1" fill-opacity="0.82"/>
<circle cx="198" cy="33" r="5" fill="#ECD8C1" fill-opacity="0.66"/>
<circle cx="202" cy="117" r="5" fill="#ECD8C1" fill-opacity="0.85"/>
<circle cx="200" cy="61" r="5" fill="#ECD8C1" fill-opacity="0.82"/>
<circle cx="222" cy="145" r="5" fill="#ECD8C1"/>
<circle cx="220" cy="89" r="5" fill="#ECD8C1" fill-opacity="0.82"/>
<circle cx="218" cy="33" r="5" fill="#ECD8C1" fill-opacity="0.66"/>
<circle cx="222" cy="117" r="5" fill="#ECD8C1" fill-opacity="0.85"/>
<circle cx="220" cy="61" r="5" fill="#ECD8C1" fill-opacity="0.82"/>
<circle cx="242" cy="145" r="5" fill="#ECD8C1"/>
<circle cx="240" cy="89" r="5" fill="#ECD8C1" fill-opacity="0.82"/>
<circle cx="238" cy="33" r="5" fill="#ECD8C1" fill-opacity="0.66"/>
<circle cx="242" cy="117" r="5" fill="#ECD8C1" fill-opacity="0.85"/>
<circle cx="240" cy="61" r="5" fill="#ECD8C1" fill-opacity="0.82"/>
<circle cx="262" cy="145" r="5" fill="#ECD8C1"/>
<circle cx="260" cy="89" r="5" fill="#ECD8C1" fill-opacity="0.82"/>
<circle cx="258" cy="33" r="5" fill="#ECD8C1" fill-opacity="0.66"/>
<circle cx="262" cy="117" r="5" fill="#ECD8C1" fill-opacity="0.85"/>
<circle cx="260" cy="61" r="5" fill="#ECD8C1" fill-opacity="0.82"/>
<circle cx="282" cy="145" r="5" fill="#ECD8C1"/>
<circle cx="280" cy="89" r="5" fill="#ECD8C1" fill-opacity="0.82"/>
<circle cx="278" cy="33" r="5" fill="#ECD8C1" fill-opacity="0.66"/>
<circle cx="282" cy="117" r="5" fill="#ECD8C1" fill-opacity="0.85"/>
<circle cx="280" cy="61" r="5" fill="#ECD8C1" fill-opacity="0.82"/>
<circle cx="302" cy="145" r="5" fill="#ECD8C1"/>
<circle cx="300" cy="89" r="5" fill="#ECD8C1" fill-opacity="0.82"/>
<circle cx="298" cy="33" r="5" fill="#ECD8C1" fill-opacity="0.66"/>
<circle cx="302" cy="117" r="5" fill="#ECD8C1" fill-opacity="0.85"/>
<circle cx="300" cy="61" r="5" fill="#ECD8C1" fill-opacity="0.82"/>
<circle cx="322" cy="145" r="5" fill="#ECD8C1"/>
<circle cx="320" cy="89" r="5" fill="#ECD8C1" fill-opacity="0.82"/>
<circle cx="318" cy="33" r="5" fill="#ECD8C1" fill-opacity="0.66"/>
<circle cx="322" cy="117" r="5" fill="#ECD8C1" fill-opacity="0.85"/>
<circle cx="320" cy="61" r="5" fill="#ECD8C1" fill-opacity="0.82"/>
<circle cx="342" cy="145" r="5" fill="#ECD8C1"/>
<circle cx="340" cy="89" r="5" fill="#ECD8C1" fill-opacity="0.82"/>
<circle cx="338" cy="33" r="5" fill="#ECD8C1" fill-opacity="0.66"/>
<circle cx="342" cy="117" r="5" fill="#ECD8C1" fill-opacity="0.85"/>
<circle cx="340" cy="61" r="5" fill="#ECD8C1" fill-opacity="0.82"/>
<circle cx="362" cy="145" r="5" fill="#ECD8C1"/>
<circle cx="360" cy="89" r="5" fill="#ECD8C1" fill-opacity="0.82"/>
<circle cx="358" cy="33" r="5" fill="#ECD8C1" fill-opacity="0.66"/>
<circle cx="362" cy="117" r="5" fill="#ECD8C1" fill-opacity="0.85"/>
<circle cx="360" cy="61" r="5" fill="#ECD8C1" fill-opacity="0.82"/>
<circle cx="382" cy="145" r="5" fill="#ECD8C1"/>
<circle cx="380" cy="89" r="5" fill="#ECD8C1" fill-opacity="0.82"/>
<circle cx="378" cy="33" r="5" fill="#ECD8C1" fill-opacity="0.66"/>
<circle cx="382" cy="117" r="5" fill="#ECD8C1" fill-opacity="0.85"/>
<circle cx="380" cy="61" r="5" fill="#ECD8C1" fill-opacity="0.82"/>
<circle cx="378" cy="5" r="5" fill="#ECD8C1" fill-opacity="0.16"/>
<circle cx="18" cy="5" r="5" fill="#ECD8C1" fill-opacity="0.16"/>
<circle cx="38" cy="5" r="5" fill="#ECD8C1" fill-opacity="0.16"/>
<circle cx="58" cy="5" r="5" fill="#ECD8C1" fill-opacity="0.16"/>
<circle cx="78" cy="5" r="5" fill="#ECD8C1" fill-opacity="0.16"/>
<circle cx="98" cy="5" r="5" fill="#ECD8C1" fill-opacity="0.16"/>
<circle cx="118" cy="5" r="5" fill="#ECD8C1" fill-opacity="0.16"/>
<circle cx="138" cy="5" r="5" fill="#ECD8C1" fill-opacity="0.16"/>
<circle cx="158" cy="5" r="5" fill="#ECD8C1" fill-opacity="0.16"/>
<circle cx="178" cy="5" r="5" fill="#ECD8C1" fill-opacity="0.16"/>
<circle cx="198" cy="5" r="5" fill="#ECD8C1" fill-opacity="0.16"/>
<circle cx="218" cy="5" r="5" fill="#ECD8C1" fill-opacity="0.16"/>
<circle cx="238" cy="5" r="5" fill="#ECD8C1" fill-opacity="0.16"/>
<circle cx="258" cy="5" r="5" fill="#ECD8C1" fill-opacity="0.16"/>
<circle cx="278" cy="5" r="5" fill="#ECD8C1" fill-opacity="0.16"/>
<circle cx="298" cy="5" r="5" fill="#ECD8C1" fill-opacity="0.16"/>
<circle cx="318" cy="5" r="5" fill="#ECD8C1" fill-opacity="0.16"/>
<circle cx="338" cy="5" r="5" fill="#ECD8C1" fill-opacity="0.16"/>
<circle cx="358" cy="5" r="5" fill="#ECD8C1" fill-opacity="0.16"/>
<circle cx="378" cy="5" r="5" fill="#ECD8C1" fill-opacity="0.16"/>
</svg>
