<svg width="46" height="47" viewBox="0 0 46 47" fill="none" xmlns="http://www.w3.org/2000/svg">
<g clip-path="url(#clip0_1878_796)">
<path d="M10.6736 39.5145C9.73177 39.4048 8.96487 38.9757 8.37287 38.2275C7.78088 37.4793 7.53928 36.6336 7.64806 35.6905L9.6443 18.5667C9.75409 17.6249 10.1837 16.8581 10.9331 16.2662C11.6824 15.6743 12.5275 15.4327 13.4683 15.5412L15.1807 15.7408L15.5799 12.3161C15.8561 9.94726 16.9265 8.02571 18.7912 6.55141C20.6559 5.07711 22.7722 4.47739 25.14 4.75227C27.5078 5.02714 29.4299 6.09763 30.9063 7.96375C32.3828 9.82987 32.9819 11.9461 32.7038 14.3123L32.3045 17.7371L34.0169 17.9367C34.9587 18.0465 35.7261 18.4761 36.3191 19.2256C36.9121 19.9751 37.1532 20.8202 37.0424 21.7607L35.0462 38.8845C34.9364 39.8263 34.5073 40.5938 33.7589 41.1869C33.0106 41.7801 32.165 42.0211 31.2222 41.91L10.6736 39.5145ZM21.946 32.1504C22.8878 32.2602 23.7334 32.0191 24.4828 31.4273C25.2321 30.8354 25.6612 30.0679 25.77 29.1249C25.8788 28.1818 25.6377 27.3368 25.0467 26.5898C24.4557 25.8428 23.6883 25.4132 22.7445 25.3009C21.8007 25.1885 20.9556 25.4302 20.2092 26.0259C19.4629 26.6215 19.0333 27.3884 18.9205 28.3264C18.8077 29.2644 19.0493 30.11 19.6453 30.8633C20.2413 31.6167 21.0082 32.0457 21.946 32.1504ZM18.6055 16.1401L28.8798 17.3378L29.279 13.913C29.4454 12.4861 29.0873 11.2149 28.2049 10.0996C27.3224 8.98423 26.1677 8.34338 24.7407 8.17703C23.3137 8.01068 22.0426 8.36872 20.9272 9.25116C19.8119 10.1336 19.1711 11.2883 19.0047 12.7153L18.6055 16.1401Z" fill="white"/>
</g>
<defs>
<clipPath id="clip0_1878_796">
<rect width="41.3755" height="41.3755" fill="white" transform="translate(4.79102 0.644531) rotate(6.64935)"/>
</clipPath>
</defs>
</svg>
