<svg width="23" height="29" viewBox="0 0 23 29" fill="none" xmlns="http://www.w3.org/2000/svg">
<path d="M3.541 28.8743C2.80766 28.8743 2.18011 28.6134 1.65833 28.0917C1.13655 27.5699 0.875218 26.9419 0.874329 26.2077V12.8743C0.874329 12.141 1.13566 11.5134 1.65833 10.9917C2.18099 10.4699 2.80855 10.2086 3.541 10.2077H4.87433V7.541C4.87433 5.69655 5.52455 4.12455 6.825 2.825C8.12544 1.52544 9.69744 0.875218 11.541 0.87433C13.3846 0.873441 14.957 1.52366 16.2583 2.825C17.5597 4.12633 18.2094 5.69833 18.2077 7.541V10.2077H19.541C20.2743 10.2077 20.9023 10.469 21.425 10.9917C21.9477 11.5143 22.2085 12.1419 22.2077 12.8743V26.2077C22.2077 26.941 21.9468 27.569 21.425 28.0917C20.9032 28.6143 20.2752 28.8752 19.541 28.8743H3.541ZM11.541 22.2077C12.2743 22.2077 12.9023 21.9468 13.425 21.425C13.9477 20.9032 14.2086 20.2752 14.2077 19.541C14.2068 18.8068 13.9459 18.1792 13.425 17.6583C12.9041 17.1374 12.2761 16.8761 11.541 16.8743C10.8059 16.8726 10.1783 17.1339 9.65833 17.6583C9.13833 18.1828 8.87699 18.8103 8.87433 19.541C8.87166 20.2717 9.133 20.8997 9.65833 21.425C10.1837 21.9503 10.8112 22.2112 11.541 22.2077ZM7.54099 10.2077H15.541V7.541C15.541 6.42988 15.1521 5.48544 14.3743 4.70766C13.5966 3.92988 12.6521 3.541 11.541 3.541C10.4299 3.541 9.48544 3.92988 8.70766 4.70766C7.92988 5.48544 7.54099 6.42988 7.54099 7.541V10.2077Z" fill="white"/>
</svg>
