<svg width="25" height="25" viewBox="0 0 25 25" fill="none" xmlns="http://www.w3.org/2000/svg">
<path d="M5.55556 25V22.2222H11.1111V17.9167C9.97685 17.662 8.96435 17.1819 8.07361 16.4764C7.18287 15.7708 6.5287 14.8852 6.11111 13.8194C4.375 13.6111 2.92269 12.8532 1.75417 11.5458C0.585648 10.2384 0.000925926 8.70463 0 6.94444V5.55556C0 4.79167 0.272222 4.13796 0.816667 3.59444C1.36111 3.05093 2.01481 2.7787 2.77778 2.77778H5.55556V0H19.4444V2.77778H22.2222C22.9861 2.77778 23.6403 3.05 24.1847 3.59444C24.7292 4.13889 25.0009 4.79259 25 5.55556V6.94444C25 8.7037 24.4153 10.2375 23.2458 11.5458C22.0764 12.8542 20.6241 13.612 18.8889 13.8194C18.4722 14.8843 17.8185 15.7699 16.9278 16.4764C16.037 17.1829 15.0241 17.663 13.8889 17.9167V22.2222H19.4444V25H5.55556ZM5.55556 10.8333V5.55556H2.77778V6.94444C2.77778 7.82407 3.03241 8.61713 3.54167 9.32361C4.05093 10.0301 4.72222 10.5333 5.55556 10.8333ZM19.4444 10.8333C20.2778 10.5324 20.9491 10.0287 21.4583 9.32222C21.9676 8.61574 22.2222 7.82315 22.2222 6.94444V5.55556H19.4444V10.8333Z" fill="#2A334E"/>
</svg>
