<svg width="390" height="169" viewBox="0 0 390 169" fill="none" xmlns="http://www.w3.org/2000/svg">
<g opacity="0.71">
<mask id="mask0_2522_3445" style="mask-type:alpha" maskUnits="userSpaceOnUse" x="-2" y="0" width="394" height="169">
<circle cx="18" cy="164" r="5" fill="#BA7494"/>
<circle cx="16" cy="108" r="5" fill="#BA7494" fill-opacity="0.8"/>
<circle cx="14" cy="51.9999" r="5" fill="#BA7494" fill-opacity="0.4"/>
<circle cx="18" cy="136" r="5" fill="#BA7494"/>
<circle cx="16" cy="79.9999" r="5" fill="#BA7494" fill-opacity="0.6"/>
<circle cx="14" cy="23.9999" r="5" fill="#BA7494" fill-opacity="0.2"/>
<circle cx="38" cy="164" r="5" fill="#BA7494"/>
<circle cx="36" cy="108" r="5" fill="#BA7494" fill-opacity="0.8"/>
<circle cx="34" cy="51.9999" r="5" fill="#BA7494" fill-opacity="0.4"/>
<circle cx="38" cy="136" r="5" fill="#BA7494"/>
<circle cx="36" cy="79.9999" r="5" fill="#BA7494" fill-opacity="0.6"/>
<circle cx="34" cy="23.9999" r="5" fill="#BA7494" fill-opacity="0.2"/>
<circle cx="58" cy="164" r="5" fill="#BA7494"/>
<circle cx="56" cy="108" r="5" fill="#BA7494" fill-opacity="0.8"/>
<circle cx="54" cy="51.9999" r="5" fill="#BA7494" fill-opacity="0.4"/>
<circle cx="58" cy="136" r="5" fill="#BA7494"/>
<circle cx="56" cy="79.9999" r="5" fill="#BA7494" fill-opacity="0.6"/>
<circle cx="54" cy="23.9999" r="5" fill="#BA7494" fill-opacity="0.2"/>
<circle cx="78" cy="164" r="5" fill="#BA7494"/>
<circle cx="76" cy="108" r="5" fill="#BA7494" fill-opacity="0.8"/>
<circle cx="74" cy="51.9999" r="5" fill="#BA7494" fill-opacity="0.4"/>
<circle cx="78" cy="136" r="5" fill="#BA7494"/>
<circle cx="76" cy="79.9999" r="5" fill="#BA7494" fill-opacity="0.6"/>
<circle cx="74" cy="23.9999" r="5" fill="#BA7494" fill-opacity="0.2"/>
<circle cx="98" cy="164" r="5" fill="#BA7494"/>
<circle cx="96" cy="108" r="5" fill="#BA7494" fill-opacity="0.8"/>
<circle cx="94" cy="51.9999" r="5" fill="#BA7494" fill-opacity="0.4"/>
<circle cx="98" cy="136" r="5" fill="#BA7494"/>
<circle cx="96" cy="79.9999" r="5" fill="#BA7494" fill-opacity="0.6"/>
<circle cx="94" cy="23.9999" r="5" fill="#BA7494" fill-opacity="0.2"/>
<circle cx="118" cy="164" r="5" fill="#BA7494"/>
<circle cx="116" cy="108" r="5" fill="#BA7494" fill-opacity="0.8"/>
<circle cx="114" cy="51.9999" r="5" fill="#BA7494" fill-opacity="0.4"/>
<circle cx="118" cy="136" r="5" fill="#BA7494"/>
<circle cx="116" cy="79.9999" r="5" fill="#BA7494" fill-opacity="0.6"/>
<circle cx="114" cy="23.9999" r="5" fill="#BA7494" fill-opacity="0.2"/>
<circle cx="138" cy="164" r="5" fill="#BA7494"/>
<circle cx="136" cy="108" r="5" fill="#BA7494" fill-opacity="0.8"/>
<circle cx="134" cy="51.9999" r="5" fill="#BA7494" fill-opacity="0.4"/>
<circle cx="138" cy="136" r="5" fill="#BA7494"/>
<circle cx="136" cy="79.9999" r="5" fill="#BA7494" fill-opacity="0.6"/>
<circle cx="134" cy="23.9999" r="5" fill="#BA7494" fill-opacity="0.2"/>
<circle cx="158" cy="164" r="5" fill="#BA7494"/>
<circle cx="156" cy="108" r="5" fill="#BA7494" fill-opacity="0.8"/>
<circle cx="154" cy="51.9999" r="5" fill="#BA7494" fill-opacity="0.4"/>
<circle cx="158" cy="136" r="5" fill="#BA7494"/>
<circle cx="156" cy="79.9999" r="5" fill="#BA7494" fill-opacity="0.6"/>
<circle cx="154" cy="23.9999" r="5" fill="#BA7494" fill-opacity="0.2"/>
<circle cx="178" cy="164" r="5" fill="#BA7494"/>
<circle cx="176" cy="108" r="5" fill="#BA7494" fill-opacity="0.8"/>
<circle cx="174" cy="51.9999" r="5" fill="#BA7494" fill-opacity="0.4"/>
<circle cx="178" cy="136" r="5" fill="#BA7494"/>
<circle cx="176" cy="79.9999" r="5" fill="#BA7494" fill-opacity="0.6"/>
<circle cx="174" cy="23.9999" r="5" fill="#BA7494" fill-opacity="0.2"/>
<circle cx="198" cy="164" r="5" fill="#BA7494"/>
<circle cx="196" cy="108" r="5" fill="#BA7494" fill-opacity="0.8"/>
<circle cx="194" cy="51.9999" r="5" fill="#BA7494" fill-opacity="0.4"/>
<circle cx="198" cy="136" r="5" fill="#BA7494"/>
<circle cx="196" cy="79.9999" r="5" fill="#BA7494" fill-opacity="0.6"/>
<circle cx="194" cy="23.9999" r="5" fill="#BA7494" fill-opacity="0.2"/>
<circle cx="218" cy="164" r="5" fill="#BA7494"/>
<circle cx="216" cy="108" r="5" fill="#BA7494" fill-opacity="0.8"/>
<circle cx="214" cy="51.9999" r="5" fill="#BA7494" fill-opacity="0.4"/>
<circle cx="218" cy="136" r="5" fill="#BA7494"/>
<circle cx="216" cy="79.9999" r="5" fill="#BA7494" fill-opacity="0.6"/>
<circle cx="214" cy="23.9999" r="5" fill="#BA7494" fill-opacity="0.2"/>
<circle cx="238" cy="164" r="5" fill="#BA7494"/>
<circle cx="236" cy="108" r="5" fill="#BA7494" fill-opacity="0.8"/>
<circle cx="234" cy="51.9999" r="5" fill="#BA7494" fill-opacity="0.4"/>
<circle cx="238" cy="136" r="5" fill="#BA7494"/>
<circle cx="236" cy="79.9999" r="5" fill="#BA7494" fill-opacity="0.6"/>
<circle cx="234" cy="23.9999" r="5" fill="#BA7494" fill-opacity="0.2"/>
<circle cx="258" cy="164" r="5" fill="#BA7494"/>
<circle cx="256" cy="108" r="5" fill="#BA7494" fill-opacity="0.8"/>
<circle cx="254" cy="51.9999" r="5" fill="#BA7494" fill-opacity="0.4"/>
<circle cx="258" cy="136" r="5" fill="#BA7494"/>
<circle cx="256" cy="79.9999" r="5" fill="#BA7494" fill-opacity="0.6"/>
<circle cx="254" cy="23.9999" r="5" fill="#BA7494" fill-opacity="0.2"/>
<circle cx="278" cy="164" r="5" fill="#BA7494"/>
<circle cx="276" cy="108" r="5" fill="#BA7494" fill-opacity="0.8"/>
<circle cx="274" cy="51.9999" r="5" fill="#BA7494" fill-opacity="0.4"/>
<circle cx="278" cy="136" r="5" fill="#BA7494"/>
<circle cx="276" cy="79.9999" r="5" fill="#BA7494" fill-opacity="0.6"/>
<circle cx="274" cy="23.9999" r="5" fill="#BA7494" fill-opacity="0.2"/>
<circle cx="298" cy="164" r="5" fill="#BA7494"/>
<circle cx="296" cy="108" r="5" fill="#BA7494" fill-opacity="0.8"/>
<circle cx="294" cy="51.9999" r="5" fill="#BA7494" fill-opacity="0.4"/>
<circle cx="298" cy="136" r="5" fill="#BA7494"/>
<circle cx="296" cy="79.9999" r="5" fill="#BA7494" fill-opacity="0.6"/>
<circle cx="294" cy="23.9999" r="5" fill="#BA7494" fill-opacity="0.2"/>
<circle cx="318" cy="164" r="5" fill="#BA7494"/>
<circle cx="316" cy="108" r="5" fill="#BA7494" fill-opacity="0.8"/>
<circle cx="314" cy="51.9999" r="5" fill="#BA7494" fill-opacity="0.4"/>
<circle cx="318" cy="136" r="5" fill="#BA7494"/>
<circle cx="316" cy="79.9999" r="5" fill="#BA7494" fill-opacity="0.6"/>
<circle cx="314" cy="23.9999" r="5" fill="#BA7494" fill-opacity="0.2"/>
<circle cx="338" cy="164" r="5" fill="#BA7494"/>
<circle cx="336" cy="108" r="5" fill="#BA7494" fill-opacity="0.8"/>
<circle cx="334" cy="51.9999" r="5" fill="#BA7494" fill-opacity="0.4"/>
<circle cx="338" cy="136" r="5" fill="#BA7494"/>
<circle cx="336" cy="79.9999" r="5" fill="#BA7494" fill-opacity="0.6"/>
<circle cx="334" cy="23.9999" r="5" fill="#BA7494" fill-opacity="0.2"/>
<circle cx="358" cy="164" r="5" fill="#BA7494"/>
<circle cx="356" cy="108" r="5" fill="#BA7494" fill-opacity="0.8"/>
<circle cx="354" cy="51.9999" r="5" fill="#BA7494" fill-opacity="0.4"/>
<circle cx="358" cy="136" r="5" fill="#BA7494"/>
<circle cx="356" cy="79.9999" r="5" fill="#BA7494" fill-opacity="0.6"/>
<circle cx="354" cy="23.9999" r="5" fill="#BA7494" fill-opacity="0.2"/>
<circle cx="378" cy="164" r="5" fill="#BA7494"/>
<circle cx="376" cy="108" r="5" fill="#BA7494" fill-opacity="0.8"/>
<circle cx="374" cy="51.9999" r="5" fill="#BA7494" fill-opacity="0.4"/>
<circle cx="378" cy="136" r="5" fill="#BA7494"/>
<circle cx="376" cy="79.9999" r="5" fill="#BA7494" fill-opacity="0.6"/>
<circle cx="374" cy="23.9999" r="5" fill="#BA7494" fill-opacity="0.2"/>
<circle cx="7" cy="150" r="5" fill="#BA7494"/>
<circle cx="5" cy="93.9999" r="5" fill="#BA7494" fill-opacity="0.6"/>
<circle cx="3" cy="37.9999" r="5" fill="#BA7494" fill-opacity="0.4"/>
<circle cx="7" cy="122" r="5" fill="#BA7494" fill-opacity="0.8"/>
<circle cx="5" cy="65.9999" r="5" fill="#BA7494" fill-opacity="0.6"/>
<circle cx="27" cy="150" r="5" fill="#BA7494"/>
<circle cx="25" cy="93.9999" r="5" fill="#BA7494" fill-opacity="0.6"/>
<circle cx="23" cy="37.9999" r="5" fill="#BA7494" fill-opacity="0.4"/>
<circle cx="27" cy="122" r="5" fill="#BA7494" fill-opacity="0.8"/>
<circle cx="25" cy="65.9999" r="5" fill="#BA7494" fill-opacity="0.6"/>
<circle cx="47" cy="150" r="5" fill="#BA7494"/>
<circle cx="45" cy="93.9999" r="5" fill="#BA7494" fill-opacity="0.6"/>
<circle cx="43" cy="37.9999" r="5" fill="#BA7494" fill-opacity="0.4"/>
<circle cx="47" cy="122" r="5" fill="#BA7494" fill-opacity="0.8"/>
<circle cx="45" cy="65.9999" r="5" fill="#BA7494" fill-opacity="0.6"/>
<circle cx="67" cy="150" r="5" fill="#BA7494"/>
<circle cx="65" cy="93.9999" r="5" fill="#BA7494" fill-opacity="0.6"/>
<circle cx="63" cy="37.9999" r="5" fill="#BA7494" fill-opacity="0.4"/>
<circle cx="67" cy="122" r="5" fill="#BA7494" fill-opacity="0.8"/>
<circle cx="65" cy="65.9999" r="5" fill="#BA7494" fill-opacity="0.6"/>
<circle cx="87" cy="150" r="5" fill="#BA7494"/>
<circle cx="85" cy="93.9999" r="5" fill="#BA7494" fill-opacity="0.6"/>
<circle cx="83" cy="37.9999" r="5" fill="#BA7494" fill-opacity="0.4"/>
<circle cx="87" cy="122" r="5" fill="#BA7494" fill-opacity="0.8"/>
<circle cx="85" cy="65.9999" r="5" fill="#BA7494" fill-opacity="0.6"/>
<circle cx="107" cy="150" r="5" fill="#BA7494"/>
<circle cx="105" cy="93.9999" r="5" fill="#BA7494" fill-opacity="0.6"/>
<circle cx="103" cy="37.9999" r="5" fill="#BA7494" fill-opacity="0.4"/>
<circle cx="107" cy="122" r="5" fill="#BA7494" fill-opacity="0.8"/>
<circle cx="105" cy="65.9999" r="5" fill="#BA7494" fill-opacity="0.6"/>
<circle cx="127" cy="150" r="5" fill="#BA7494"/>
<circle cx="125" cy="93.9999" r="5" fill="#BA7494" fill-opacity="0.6"/>
<circle cx="123" cy="37.9999" r="5" fill="#BA7494" fill-opacity="0.4"/>
<circle cx="127" cy="122" r="5" fill="#BA7494" fill-opacity="0.8"/>
<circle cx="125" cy="65.9999" r="5" fill="#BA7494" fill-opacity="0.6"/>
<circle cx="147" cy="150" r="5" fill="#BA7494"/>
<circle cx="145" cy="93.9999" r="5" fill="#BA7494" fill-opacity="0.6"/>
<circle cx="143" cy="37.9999" r="5" fill="#BA7494" fill-opacity="0.4"/>
<circle cx="147" cy="122" r="5" fill="#BA7494" fill-opacity="0.8"/>
<circle cx="145" cy="65.9999" r="5" fill="#BA7494" fill-opacity="0.6"/>
<circle cx="167" cy="150" r="5" fill="#BA7494"/>
<circle cx="165" cy="93.9999" r="5" fill="#BA7494" fill-opacity="0.6"/>
<circle cx="163" cy="37.9999" r="5" fill="#BA7494" fill-opacity="0.4"/>
<circle cx="167" cy="122" r="5" fill="#BA7494" fill-opacity="0.8"/>
<circle cx="165" cy="65.9999" r="5" fill="#BA7494" fill-opacity="0.6"/>
<circle cx="187" cy="150" r="5" fill="#BA7494"/>
<circle cx="185" cy="93.9999" r="5" fill="#BA7494" fill-opacity="0.6"/>
<circle cx="183" cy="37.9999" r="5" fill="#BA7494" fill-opacity="0.4"/>
<circle cx="187" cy="122" r="5" fill="#BA7494" fill-opacity="0.8"/>
<circle cx="185" cy="65.9999" r="5" fill="#BA7494" fill-opacity="0.6"/>
<circle cx="207" cy="150" r="5" fill="#BA7494"/>
<circle cx="205" cy="93.9999" r="5" fill="#BA7494" fill-opacity="0.6"/>
<circle cx="203" cy="37.9999" r="5" fill="#BA7494" fill-opacity="0.4"/>
<circle cx="207" cy="122" r="5" fill="#BA7494" fill-opacity="0.8"/>
<circle cx="205" cy="65.9999" r="5" fill="#BA7494" fill-opacity="0.6"/>
<circle cx="227" cy="150" r="5" fill="#BA7494"/>
<circle cx="225" cy="93.9999" r="5" fill="#BA7494" fill-opacity="0.6"/>
<circle cx="223" cy="37.9999" r="5" fill="#BA7494" fill-opacity="0.4"/>
<circle cx="227" cy="122" r="5" fill="#BA7494" fill-opacity="0.8"/>
<circle cx="225" cy="65.9999" r="5" fill="#BA7494" fill-opacity="0.6"/>
<circle cx="247" cy="150" r="5" fill="#BA7494"/>
<circle cx="245" cy="93.9999" r="5" fill="#BA7494" fill-opacity="0.6"/>
<circle cx="243" cy="37.9999" r="5" fill="#BA7494" fill-opacity="0.4"/>
<circle cx="247" cy="122" r="5" fill="#BA7494" fill-opacity="0.8"/>
<circle cx="245" cy="65.9999" r="5" fill="#BA7494" fill-opacity="0.6"/>
<circle cx="267" cy="150" r="5" fill="#BA7494"/>
<circle cx="265" cy="93.9999" r="5" fill="#BA7494" fill-opacity="0.6"/>
<circle cx="263" cy="37.9999" r="5" fill="#BA7494" fill-opacity="0.4"/>
<circle cx="267" cy="122" r="5" fill="#BA7494" fill-opacity="0.8"/>
<circle cx="265" cy="65.9999" r="5" fill="#BA7494" fill-opacity="0.6"/>
<circle cx="287" cy="150" r="5" fill="#BA7494"/>
<circle cx="285" cy="93.9999" r="5" fill="#BA7494" fill-opacity="0.6"/>
<circle cx="283" cy="37.9999" r="5" fill="#BA7494" fill-opacity="0.4"/>
<circle cx="287" cy="122" r="5" fill="#BA7494" fill-opacity="0.8"/>
<circle cx="285" cy="65.9999" r="5" fill="#BA7494" fill-opacity="0.6"/>
<circle cx="307" cy="150" r="5" fill="#BA7494"/>
<circle cx="305" cy="93.9999" r="5" fill="#BA7494" fill-opacity="0.6"/>
<circle cx="303" cy="37.9999" r="5" fill="#BA7494" fill-opacity="0.4"/>
<circle cx="307" cy="122" r="5" fill="#BA7494" fill-opacity="0.8"/>
<circle cx="305" cy="65.9999" r="5" fill="#BA7494" fill-opacity="0.6"/>
<circle cx="327" cy="150" r="5" fill="#BA7494"/>
<circle cx="325" cy="93.9999" r="5" fill="#BA7494" fill-opacity="0.6"/>
<circle cx="323" cy="37.9999" r="5" fill="#BA7494" fill-opacity="0.4"/>
<circle cx="327" cy="122" r="5" fill="#BA7494" fill-opacity="0.8"/>
<circle cx="325" cy="65.9999" r="5" fill="#BA7494" fill-opacity="0.6"/>
<circle cx="347" cy="150" r="5" fill="#BA7494"/>
<circle cx="345" cy="93.9999" r="5" fill="#BA7494" fill-opacity="0.6"/>
<circle cx="343" cy="37.9999" r="5" fill="#BA7494" fill-opacity="0.4"/>
<circle cx="347" cy="122" r="5" fill="#BA7494" fill-opacity="0.8"/>
<circle cx="345" cy="65.9999" r="5" fill="#BA7494" fill-opacity="0.6"/>
<circle cx="367" cy="150" r="5" fill="#BA7494"/>
<circle cx="365" cy="93.9999" r="5" fill="#BA7494" fill-opacity="0.6"/>
<circle cx="363" cy="37.9999" r="5" fill="#BA7494" fill-opacity="0.4"/>
<circle cx="367" cy="122" r="5" fill="#BA7494" fill-opacity="0.8"/>
<circle cx="365" cy="65.9999" r="5" fill="#BA7494" fill-opacity="0.6"/>
<circle cx="387" cy="150" r="5" fill="#BA7494"/>
<circle cx="385" cy="93.9999" r="5" fill="#BA7494" fill-opacity="0.6"/>
<circle cx="383" cy="37.9999" r="5" fill="#BA7494" fill-opacity="0.4"/>
<circle cx="387" cy="122" r="5" fill="#BA7494" fill-opacity="0.8"/>
<circle cx="385" cy="65.9999" r="5" fill="#BA7494" fill-opacity="0.6"/>
<ellipse cx="3" cy="5.33361" rx="5" ry="4.95958" fill="#ECD8C1" fill-opacity="0.1"/>
<ellipse cx="23" cy="5.33361" rx="5" ry="4.95958" fill="#ECD8C1" fill-opacity="0.1"/>
<ellipse cx="43" cy="5.33361" rx="5" ry="4.95958" fill="#ECD8C1" fill-opacity="0.1"/>
<ellipse cx="63" cy="5.33361" rx="5" ry="4.95958" fill="#ECD8C1" fill-opacity="0.1"/>
<ellipse cx="83" cy="5.33361" rx="5" ry="4.95958" fill="#ECD8C1" fill-opacity="0.1"/>
<ellipse cx="103" cy="5.33361" rx="5" ry="4.95958" fill="#ECD8C1" fill-opacity="0.1"/>
<ellipse cx="123" cy="5.33361" rx="5" ry="4.95958" fill="#ECD8C1" fill-opacity="0.1"/>
<ellipse cx="143" cy="5.33361" rx="5" ry="4.95958" fill="#ECD8C1" fill-opacity="0.1"/>
<ellipse cx="163" cy="5.33361" rx="5" ry="4.95958" fill="#ECD8C1" fill-opacity="0.1"/>
<ellipse cx="183" cy="5.33361" rx="5" ry="4.95958" fill="#ECD8C1" fill-opacity="0.1"/>
<ellipse cx="203" cy="5.33361" rx="5" ry="4.95958" fill="#ECD8C1" fill-opacity="0.1"/>
<ellipse cx="223" cy="5.33361" rx="5" ry="4.95958" fill="#ECD8C1" fill-opacity="0.1"/>
<ellipse cx="243" cy="5.33361" rx="5" ry="4.95958" fill="#ECD8C1" fill-opacity="0.1"/>
<ellipse cx="263" cy="5.33361" rx="5" ry="4.95958" fill="#ECD8C1" fill-opacity="0.1"/>
<ellipse cx="283" cy="5.33361" rx="5" ry="4.95958" fill="#ECD8C1" fill-opacity="0.1"/>
<ellipse cx="303" cy="5.33361" rx="5" ry="4.95958" fill="#ECD8C1" fill-opacity="0.1"/>
<ellipse cx="323" cy="5.33361" rx="5" ry="4.95958" fill="#ECD8C1" fill-opacity="0.1"/>
<ellipse cx="343" cy="5.33361" rx="5" ry="4.95958" fill="#ECD8C1" fill-opacity="0.1"/>
<ellipse cx="363" cy="5.33361" rx="5" ry="4.95958" fill="#ECD8C1" fill-opacity="0.1"/>
<ellipse cx="383" cy="5.33361" rx="5" ry="4.95958" fill="#ECD8C1" fill-opacity="0.1"/>
</mask>
<g mask="url(#mask0_2522_3445)">
<rect y="-1" width="390" height="177" fill="url(#paint0_linear_2522_3445)"/>
</g>
</g>
<defs>
<linearGradient id="paint0_linear_2522_3445" x1="195" y1="-1" x2="195" y2="176" gradientUnits="userSpaceOnUse">
<stop stop-color="#D9D9D9"/>
<stop offset="1" stop-color="#B0C6B5"/>
</linearGradient>
</defs>
</svg>
